{
	"asset":{
		"generator":"Khronos glTF Blender I/O v4.2.57",
		"version":"2.0"
	},
	"scene":0,
	"scenes":[
		{
			"name":"Scene",
			"nodes":[
				8
			]
		}
	],
	"nodes":[
		{
			"name":"Bone.003",
			"rotation":[
				-0.040132008492946625,
				0.12262529134750366,
				-0.3311878740787506,
				0.9347016215324402
			],
			"scale":[
				1,
				0.9999999403953552,
				0.9999999403953552
			],
			"translation":[
				-3.9927838813014205e-09,
				0.844210684299469,
				5.834408511873335e-09
			]
		},
		{
			"children":[
				0
			],
			"name":"Bone.002",
			"rotation":[
				0.28285670280456543,
				-0.4597916603088379,
				0.5261467099189758,
				0.6570794582366943
			],
			"scale":[
				1,
				1.0000001192092896,
				1.0000001192092896
			],
			"translation":[
				-1.6431300764452317e-14,
				0.5914223194122314,
				3.5390257835388184e-08
			]
		},
		{
			"name":"Bone.005",
			"rotation":[
				-0.04293854162096977,
				-0.09426318854093552,
				0.2521264851093292,
				0.962134599685669
			],
			"scale":[
				1,
				0.9999998807907104,
				0.9999998807907104
			],
			"translation":[
				8.245535809692228e-09,
				0.8403401374816895,
				5.145557224750519e-08
			]
		},
		{
			"children":[
				2
			],
			"name":"Bone.004",
			"rotation":[
				0.2951417863368988,
				0.43730098009109497,
				-0.49966123700141907,
				0.687021017074585
			],
			"scale":[
				0.9999999403953552,
				0.9999998211860657,
				0.9999999403953552
			],
			"translation":[
				-1.6431300764452317e-14,
				0.5914223194122314,
				3.5390257835388184e-08
			]
		},
		{
			"name":"Bone.006",
			"rotation":[
				0.49646279215812683,
				-0.002521687652915716,
				0.003687172429636121,
				0.8680465221405029
			],
			"scale":[
				0.9999999403953552,
				1,
				1
			],
			"translation":[
				-1.6431300764452317e-14,
				0.5914223194122314,
				3.5390257835388184e-08
			]
		},
		{
			"children":[
				1,
				3,
				4
			],
			"name":"Bone.001",
			"rotation":[
				-0.5331746935844421,
				1.0085164348083708e-07,
				-6.355936221780212e-08,
				0.8460052013397217
			],
			"scale":[
				1,
				0.9999998807907104,
				0.9999999403953552
			],
			"translation":[
				0,
				0.7164791822433472,
				0
			]
		},
		{
			"children":[
				5
			],
			"name":"Bone"
		},
		{
			"mesh":0,
			"name":"Suzanne",
			"skin":0
		},
		{
			"children":[
				7,
				6
			],
			"name":"Armature",
			"translation":[
				0,
				-0.9923229813575745,
				1.363011121749878
			]
		}
	],
	"animations":[
		{
			"channels":[
				{
					"sampler":0,
					"target":{
						"node":6,
						"path":"translation"
					}
				},
				{
					"sampler":1,
					"target":{
						"node":6,
						"path":"rotation"
					}
				},
				{
					"sampler":2,
					"target":{
						"node":6,
						"path":"scale"
					}
				},
				{
					"sampler":3,
					"target":{
						"node":5,
						"path":"translation"
					}
				},
				{
					"sampler":4,
					"target":{
						"node":5,
						"path":"rotation"
					}
				},
				{
					"sampler":5,
					"target":{
						"node":5,
						"path":"scale"
					}
				},
				{
					"sampler":6,
					"target":{
						"node":1,
						"path":"translation"
					}
				},
				{
					"sampler":7,
					"target":{
						"node":1,
						"path":"rotation"
					}
				},
				{
					"sampler":8,
					"target":{
						"node":1,
						"path":"scale"
					}
				},
				{
					"sampler":9,
					"target":{
						"node":0,
						"path":"translation"
					}
				},
				{
					"sampler":10,
					"target":{
						"node":0,
						"path":"rotation"
					}
				},
				{
					"sampler":11,
					"target":{
						"node":0,
						"path":"scale"
					}
				},
				{
					"sampler":12,
					"target":{
						"node":3,
						"path":"translation"
					}
				},
				{
					"sampler":13,
					"target":{
						"node":3,
						"path":"rotation"
					}
				},
				{
					"sampler":14,
					"target":{
						"node":3,
						"path":"scale"
					}
				},
				{
					"sampler":15,
					"target":{
						"node":2,
						"path":"translation"
					}
				},
				{
					"sampler":16,
					"target":{
						"node":2,
						"path":"rotation"
					}
				},
				{
					"sampler":17,
					"target":{
						"node":2,
						"path":"scale"
					}
				},
				{
					"sampler":18,
					"target":{
						"node":4,
						"path":"translation"
					}
				},
				{
					"sampler":19,
					"target":{
						"node":4,
						"path":"rotation"
					}
				},
				{
					"sampler":20,
					"target":{
						"node":4,
						"path":"scale"
					}
				}
			],
			"name":"ArmatureAction",
			"samplers":[
				{
					"input":7,
					"interpolation":"LINEAR",
					"output":8
				},
				{
					"input":7,
					"interpolation":"LINEAR",
					"output":9
				},
				{
					"input":10,
					"interpolation":"STEP",
					"output":11
				},
				{
					"input":10,
					"interpolation":"STEP",
					"output":12
				},
				{
					"input":7,
					"interpolation":"LINEAR",
					"output":13
				},
				{
					"input":10,
					"interpolation":"STEP",
					"output":14
				},
				{
					"input":10,
					"interpolation":"STEP",
					"output":15
				},
				{
					"input":10,
					"interpolation":"STEP",
					"output":16
				},
				{
					"input":10,
					"interpolation":"STEP",
					"output":17
				},
				{
					"input":10,
					"interpolation":"STEP",
					"output":18
				},
				{
					"input":7,
					"interpolation":"LINEAR",
					"output":19
				},
				{
					"input":10,
					"interpolation":"STEP",
					"output":20
				},
				{
					"input":10,
					"interpolation":"STEP",
					"output":21
				},
				{
					"input":10,
					"interpolation":"STEP",
					"output":22
				},
				{
					"input":10,
					"interpolation":"STEP",
					"output":23
				},
				{
					"input":10,
					"interpolation":"STEP",
					"output":24
				},
				{
					"input":7,
					"interpolation":"LINEAR",
					"output":25
				},
				{
					"input":10,
					"interpolation":"STEP",
					"output":26
				},
				{
					"input":10,
					"interpolation":"STEP",
					"output":27
				},
				{
					"input":7,
					"interpolation":"LINEAR",
					"output":28
				},
				{
					"input":10,
					"interpolation":"STEP",
					"output":29
				}
			]
		}
	],
	"materials":[
		{
			"doubleSided":true,
			"name":"Material.001",
			"pbrMetallicRoughness":{
				"baseColorFactor":[
					0.8006867170333862,
					0,
					0.7942252159118652,
					1
				],
				"metallicFactor":0.443145751953125,
				"roughnessFactor":0.2301587164402008
			}
		}
	],
	"meshes":[
		{
			"name":"Suzanne",
			"primitives":[
				{
					"attributes":{
						"POSITION":0,
						"NORMAL":1,
						"TEXCOORD_0":2,
						"JOINTS_0":3,
						"WEIGHTS_0":4
					},
					"indices":5,
					"material":0
				}
			]
		}
	],
	"skins":[
		{
			"inverseBindMatrices":6,
			"joints":[
				6,
				5,
				1,
				0,
				3,
				2,
				4
			],
			"name":"Armature"
		}
	],
	"accessors":[
		{
			"bufferView":0,
			"componentType":5126,
			"count":555,
			"max":[
				1.3671875,
				0.984375,
				1.714613437652588
			],
			"min":[
				-1.3671875,
				-0.984375,
				0.011488378047943115
			],
			"type":"VEC3"
		},
		{
			"bufferView":1,
			"componentType":5126,
			"count":555,
			"type":"VEC3"
		},
		{
			"bufferView":2,
			"componentType":5126,
			"count":555,
			"type":"VEC2"
		},
		{
			"bufferView":3,
			"componentType":5121,
			"count":555,
			"type":"VEC4"
		},
		{
			"bufferView":4,
			"componentType":5126,
			"count":555,
			"type":"VEC4"
		},
		{
			"bufferView":5,
			"componentType":5123,
			"count":2904,
			"type":"SCALAR"
		},
		{
			"bufferView":6,
			"componentType":5126,
			"count":7,
			"type":"MAT4"
		},
		{
			"bufferView":7,
			"componentType":5126,
			"count":30,
			"max":[
				1.25
			],
			"min":[
				0.041666666666666664
			],
			"type":"SCALAR"
		},
		{
			"bufferView":8,
			"componentType":5126,
			"count":30,
			"type":"VEC3"
		},
		{
			"bufferView":9,
			"componentType":5126,
			"count":30,
			"type":"VEC4"
		},
		{
			"bufferView":10,
			"componentType":5126,
			"count":2,
			"max":[
				1.25
			],
			"min":[
				0.041666666666666664
			],
			"type":"SCALAR"
		},
		{
			"bufferView":11,
			"componentType":5126,
			"count":2,
			"type":"VEC3"
		},
		{
			"bufferView":12,
			"componentType":5126,
			"count":2,
			"type":"VEC3"
		},
		{
			"bufferView":13,
			"componentType":5126,
			"count":30,
			"type":"VEC4"
		},
		{
			"bufferView":14,
			"componentType":5126,
			"count":2,
			"type":"VEC3"
		},
		{
			"bufferView":15,
			"componentType":5126,
			"count":2,
			"type":"VEC3"
		},
		{
			"bufferView":16,
			"componentType":5126,
			"count":2,
			"type":"VEC4"
		},
		{
			"bufferView":17,
			"componentType":5126,
			"count":2,
			"type":"VEC3"
		},
		{
			"bufferView":18,
			"componentType":5126,
			"count":2,
			"type":"VEC3"
		},
		{
			"bufferView":19,
			"componentType":5126,
			"count":30,
			"type":"VEC4"
		},
		{
			"bufferView":20,
			"componentType":5126,
			"count":2,
			"type":"VEC3"
		},
		{
			"bufferView":21,
			"componentType":5126,
			"count":2,
			"type":"VEC3"
		},
		{
			"bufferView":22,
			"componentType":5126,
			"count":2,
			"type":"VEC4"
		},
		{
			"bufferView":23,
			"componentType":5126,
			"count":2,
			"type":"VEC3"
		},
		{
			"bufferView":24,
			"componentType":5126,
			"count":2,
			"type":"VEC3"
		},
		{
			"bufferView":25,
			"componentType":5126,
			"count":30,
			"type":"VEC4"
		},
		{
			"bufferView":26,
			"componentType":5126,
			"count":2,
			"type":"VEC3"
		},
		{
			"bufferView":27,
			"componentType":5126,
			"count":2,
			"type":"VEC3"
		},
		{
			"bufferView":28,
			"componentType":5126,
			"count":30,
			"type":"VEC4"
		},
		{
			"bufferView":29,
			"componentType":5126,
			"count":2,
			"type":"VEC3"
		}
	],
	"bufferViews":[
		{
			"buffer":0,
			"byteLength":6660,
			"byteOffset":0,
			"target":34962
		},
		{
			"buffer":0,
			"byteLength":6660,
			"byteOffset":6660,
			"target":34962
		},
		{
			"buffer":0,
			"byteLength":4440,
			"byteOffset":13320,
			"target":34962
		},
		{
			"buffer":0,
			"byteLength":2220,
			"byteOffset":17760,
			"target":34962
		},
		{
			"buffer":0,
			"byteLength":8880,
			"byteOffset":19980,
			"target":34962
		},
		{
			"buffer":0,
			"byteLength":5808,
			"byteOffset":28860,
			"target":34963
		},
		{
			"buffer":0,
			"byteLength":448,
			"byteOffset":34668
		},
		{
			"buffer":0,
			"byteLength":120,
			"byteOffset":35116
		},
		{
			"buffer":0,
			"byteLength":360,
			"byteOffset":35236
		},
		{
			"buffer":0,
			"byteLength":480,
			"byteOffset":35596
		},
		{
			"buffer":0,
			"byteLength":8,
			"byteOffset":36076
		},
		{
			"buffer":0,
			"byteLength":24,
			"byteOffset":36084
		},
		{
			"buffer":0,
			"byteLength":24,
			"byteOffset":36108
		},
		{
			"buffer":0,
			"byteLength":480,
			"byteOffset":36132
		},
		{
			"buffer":0,
			"byteLength":24,
			"byteOffset":36612
		},
		{
			"buffer":0,
			"byteLength":24,
			"byteOffset":36636
		},
		{
			"buffer":0,
			"byteLength":32,
			"byteOffset":36660
		},
		{
			"buffer":0,
			"byteLength":24,
			"byteOffset":36692
		},
		{
			"buffer":0,
			"byteLength":24,
			"byteOffset":36716
		},
		{
			"buffer":0,
			"byteLength":480,
			"byteOffset":36740
		},
		{
			"buffer":0,
			"byteLength":24,
			"byteOffset":37220
		},
		{
			"buffer":0,
			"byteLength":24,
			"byteOffset":37244
		},
		{
			"buffer":0,
			"byteLength":32,
			"byteOffset":37268
		},
		{
			"buffer":0,
			"byteLength":24,
			"byteOffset":37300
		},
		{
			"buffer":0,
			"byteLength":24,
			"byteOffset":37324
		},
		{
			"buffer":0,
			"byteLength":480,
			"byteOffset":37348
		},
		{
			"buffer":0,
			"byteLength":24,
			"byteOffset":37828
		},
		{
			"buffer":0,
			"byteLength":24,
			"byteOffset":37852
		},
		{
			"buffer":0,
			"byteLength":480,
			"byteOffset":37876
		},
		{
			"buffer":0,
			"byteLength":24,
			"byteOffset":38356
		}
	],
	"buffers":[
		{
			"byteLength":38380,
			"uri":"huj.bin"
		}
	]
}
