<?xml version="1.0" encoding="utf-8"?>
<!-- Generator: Adobe Illustrator 25.1.0, SVG Export Plug-In . SVG Version: 6.00 Build 0)  -->
<svg version="1.1" id="Layer_1" xmlns="http://www.w3.org/2000/svg" xmlns:xlink="http://www.w3.org/1999/xlink" x="0px" y="0px"
	 viewBox="0 0 674 52" style="enable-background:new 0 0 674 52;" xml:space="preserve">
<style type="text/css">
	.st0{fill:#FFFFFF;}
</style>
<g>
	<path class="st0" d="M47.31,37.46h-2.07c-0.27,0-0.49-0.04-0.67-0.13c-0.18-0.09-0.35-0.25-0.51-0.48l-10.7-13.52
		c-0.13-0.17-0.26-0.32-0.39-0.45c-0.13-0.13-0.28-0.22-0.45-0.29c-0.17-0.07-0.36-0.12-0.59-0.15c-0.23-0.03-0.51-0.05-0.84-0.05
		h-4.36v15.08h-2.43V4.12h8.53c3.83,0,6.7,0.74,8.61,2.23c1.91,1.48,2.86,3.66,2.86,6.54c0,1.27-0.22,2.43-0.66,3.49
		c-0.44,1.05-1.07,1.98-1.9,2.77c-0.82,0.79-1.82,1.44-2.99,1.94c-1.17,0.5-2.49,0.84-3.95,1.01c0.38,0.24,0.71,0.55,1.01,0.94
		L47.31,37.46z M32.51,20.59c1.48,0,2.8-0.18,3.97-0.53c1.17-0.35,2.16-0.86,2.97-1.52c0.81-0.66,1.43-1.45,1.85-2.38
		c0.42-0.93,0.64-1.97,0.64-3.13c0-2.37-0.77-4.13-2.32-5.28c-1.55-1.15-3.81-1.72-6.77-1.72h-6.1v14.56H32.51z"/>
	<path class="st0" d="M65.02,35.74c1.6,0,3.04-0.28,4.3-0.84c1.26-0.56,2.34-1.33,3.22-2.32c0.88-0.99,1.55-2.16,2.01-3.5
		c0.46-1.34,0.7-2.79,0.7-4.35V4.12h2.4v20.61c0,1.84-0.29,3.55-0.87,5.15c-0.58,1.59-1.42,2.98-2.51,4.17s-2.42,2.12-3.98,2.79
		c-1.56,0.67-3.32,1.01-5.27,1.01c-1.95,0-3.7-0.34-5.27-1.01c-1.56-0.68-2.89-1.61-3.98-2.79c-1.09-1.19-1.93-2.58-2.51-4.17
		c-0.58-1.59-0.87-3.31-0.87-5.15V4.12h2.43v20.59c0,1.56,0.23,3,0.69,4.35s1.13,2.51,2,3.5c0.87,0.99,1.94,1.77,3.2,2.33
		C61.99,35.46,63.42,35.74,65.02,35.74z"/>
	<path class="st0" d="M89.5,6.12v14.02h15.2v2H89.5v15.31h-2.43V4.12h19.98v2H89.5z"/>
	<path class="st0" d="M125.88,35.74c1.6,0,3.04-0.28,4.3-0.84c1.26-0.56,2.34-1.33,3.22-2.32c0.88-0.99,1.55-2.16,2.01-3.5
		c0.46-1.34,0.7-2.79,0.7-4.35V4.12h2.4v20.61c0,1.84-0.29,3.55-0.87,5.15c-0.58,1.59-1.42,2.98-2.51,4.17s-2.42,2.12-3.98,2.79
		c-1.56,0.67-3.32,1.01-5.27,1.01c-1.95,0-3.7-0.34-5.27-1.01c-1.56-0.68-2.89-1.61-3.98-2.79c-1.09-1.19-1.93-2.58-2.51-4.17
		c-0.58-1.59-0.87-3.31-0.87-5.15V4.12h2.43v20.59c0,1.56,0.23,3,0.69,4.35s1.13,2.51,2,3.5c0.87,0.99,1.94,1.77,3.2,2.33
		C122.84,35.46,124.28,35.74,125.88,35.74z"/>
	<path class="st0" d="M164.12,8.17c-0.14,0.27-0.35,0.4-0.61,0.4c-0.2,0-0.47-0.15-0.79-0.44c-0.32-0.29-0.76-0.61-1.31-0.97
		s-1.24-0.68-2.06-0.98s-1.84-0.45-3.05-0.45c-1.21,0-2.27,0.17-3.19,0.52c-0.92,0.35-1.69,0.82-2.31,1.41
		c-0.62,0.6-1.09,1.29-1.41,2.07c-0.32,0.79-0.48,1.61-0.48,2.47c0,1.13,0.24,2.07,0.72,2.8s1.11,1.37,1.9,1.88
		c0.79,0.52,1.68,0.95,2.67,1.31s2.02,0.7,3.07,1.05c1.05,0.35,2.08,0.73,3.07,1.14c1,0.42,1.89,0.94,2.67,1.57
		c0.79,0.63,1.42,1.4,1.9,2.32s0.72,2.06,0.72,3.43c0,1.4-0.24,2.71-0.72,3.95c-0.48,1.23-1.17,2.31-2.08,3.22
		c-0.91,0.91-2.03,1.63-3.35,2.16c-1.32,0.53-2.83,0.79-4.52,0.79c-2.2,0-4.09-0.39-5.68-1.17c-1.59-0.78-2.98-1.84-4.17-3.19
		l0.66-1.04c0.19-0.24,0.41-0.35,0.66-0.35c0.14,0,0.32,0.09,0.54,0.28c0.22,0.19,0.49,0.42,0.8,0.7c0.31,0.27,0.69,0.57,1.13,0.89
		c0.44,0.32,0.95,0.62,1.53,0.9c0.58,0.28,1.25,0.51,2,0.7c0.75,0.19,1.61,0.28,2.57,0.28c1.32,0,2.5-0.2,3.53-0.6
		c1.04-0.4,1.91-0.95,2.63-1.64c0.71-0.69,1.26-1.51,1.64-2.46c0.38-0.95,0.57-1.97,0.57-3.05c0-1.18-0.24-2.15-0.72-2.91
		c-0.48-0.76-1.11-1.4-1.9-1.91c-0.79-0.51-1.68-0.94-2.67-1.28c-1-0.35-2.02-0.68-3.07-1.01c-1.05-0.33-2.08-0.7-3.07-1.11
		c-1-0.41-1.89-0.93-2.67-1.57c-0.79-0.64-1.42-1.43-1.9-2.38c-0.48-0.95-0.72-2.14-0.72-3.57c0-1.11,0.21-2.19,0.64-3.23
		c0.42-1.04,1.04-1.95,1.86-2.74s1.83-1.43,3.03-1.91c1.2-0.48,2.57-0.72,4.11-0.72c1.73,0,3.28,0.27,4.65,0.82
		c1.37,0.55,2.63,1.39,3.76,2.52L164.12,8.17z"/>
	<path class="st0" d="M208.93,37.46h-2.07c-0.27,0-0.49-0.04-0.67-0.13c-0.18-0.09-0.35-0.25-0.51-0.48l-10.7-13.52
		c-0.13-0.17-0.26-0.32-0.39-0.45c-0.13-0.13-0.28-0.22-0.45-0.29c-0.17-0.07-0.36-0.12-0.59-0.15c-0.23-0.03-0.51-0.05-0.84-0.05
		h-4.36v15.08h-2.43V4.12h8.53c3.83,0,6.7,0.74,8.61,2.23c1.91,1.48,2.86,3.66,2.86,6.54c0,1.27-0.22,2.43-0.66,3.49
		c-0.44,1.05-1.07,1.98-1.9,2.77c-0.82,0.79-1.82,1.44-2.99,1.94c-1.17,0.5-2.49,0.84-3.95,1.01c0.38,0.24,0.71,0.55,1.01,0.94
		L208.93,37.46z M194.13,20.59c1.48,0,2.8-0.18,3.97-0.53c1.17-0.35,2.16-0.86,2.97-1.52c0.81-0.66,1.43-1.45,1.85-2.38
		c0.42-0.93,0.64-1.97,0.64-3.13c0-2.37-0.77-4.13-2.32-5.28c-1.55-1.15-3.81-1.72-6.77-1.72h-6.1v14.56H194.13z"/>
	<path class="st0" d="M226.65,35.74c1.6,0,3.04-0.28,4.3-0.84c1.26-0.56,2.34-1.33,3.22-2.32c0.88-0.99,1.55-2.16,2.01-3.5
		c0.46-1.34,0.7-2.79,0.7-4.35V4.12h2.4v20.61c0,1.84-0.29,3.55-0.87,5.15c-0.58,1.59-1.42,2.98-2.51,4.17s-2.42,2.12-3.98,2.79
		c-1.56,0.67-3.32,1.01-5.27,1.01c-1.95,0-3.7-0.34-5.27-1.01c-1.56-0.68-2.89-1.61-3.98-2.79c-1.09-1.19-1.93-2.58-2.51-4.17
		c-0.58-1.59-0.87-3.31-0.87-5.15V4.12h2.43v20.59c0,1.56,0.23,3,0.69,4.35s1.13,2.51,2,3.5c0.87,0.99,1.94,1.77,3.2,2.33
		C223.61,35.46,225.04,35.74,226.65,35.74z"/>
	<path class="st0" d="M251.12,6.12v14.02h15.2v2h-15.2v15.31h-2.43V4.12h19.98v2H251.12z"/>
	<path class="st0" d="M290.23,8.17c-0.14,0.27-0.35,0.4-0.61,0.4c-0.2,0-0.47-0.15-0.79-0.44c-0.32-0.29-0.76-0.61-1.31-0.97
		s-1.24-0.68-2.06-0.98s-1.84-0.45-3.05-0.45c-1.21,0-2.27,0.17-3.19,0.52c-0.92,0.35-1.69,0.82-2.31,1.41
		c-0.62,0.6-1.09,1.29-1.41,2.07c-0.32,0.79-0.48,1.61-0.48,2.47c0,1.13,0.24,2.07,0.72,2.8s1.11,1.37,1.9,1.88
		c0.79,0.52,1.68,0.95,2.67,1.31s2.02,0.7,3.07,1.05c1.05,0.35,2.08,0.73,3.07,1.14c1,0.42,1.89,0.94,2.67,1.57
		c0.79,0.63,1.42,1.4,1.9,2.32s0.72,2.06,0.72,3.43c0,1.4-0.24,2.71-0.72,3.95c-0.48,1.23-1.17,2.31-2.08,3.22
		c-0.91,0.91-2.03,1.63-3.35,2.16c-1.32,0.53-2.83,0.79-4.52,0.79c-2.2,0-4.09-0.39-5.68-1.17c-1.59-0.78-2.98-1.84-4.17-3.19
		l0.66-1.04c0.19-0.24,0.41-0.35,0.66-0.35c0.14,0,0.32,0.09,0.54,0.28c0.22,0.19,0.49,0.42,0.8,0.7c0.31,0.27,0.69,0.57,1.13,0.89
		c0.44,0.32,0.95,0.62,1.53,0.9c0.58,0.28,1.25,0.51,2,0.7c0.75,0.19,1.61,0.28,2.57,0.28c1.32,0,2.5-0.2,3.53-0.6
		c1.04-0.4,1.91-0.95,2.63-1.64c0.71-0.69,1.26-1.51,1.64-2.46c0.38-0.95,0.57-1.97,0.57-3.05c0-1.18-0.24-2.15-0.72-2.91
		c-0.48-0.76-1.11-1.4-1.9-1.91c-0.79-0.51-1.68-0.94-2.67-1.28c-1-0.35-2.02-0.68-3.07-1.01c-1.05-0.33-2.08-0.7-3.07-1.11
		c-1-0.41-1.89-0.93-2.67-1.57c-0.79-0.64-1.42-1.43-1.9-2.38c-0.48-0.95-0.72-2.14-0.72-3.57c0-1.11,0.21-2.19,0.64-3.23
		c0.42-1.04,1.04-1.95,1.86-2.74s1.83-1.43,3.03-1.91c1.2-0.48,2.57-0.72,4.11-0.72c1.73,0,3.28,0.27,4.65,0.82
		c1.37,0.55,2.63,1.39,3.76,2.52L290.23,8.17z"/>
	<path class="st0" d="M328.87,20.78c0,2.58-0.38,4.91-1.15,7.01c-0.77,2.1-1.85,3.89-3.25,5.37s-3.07,2.63-5.03,3.44
		c-1.96,0.81-4.11,1.21-6.47,1.21s-4.51-0.4-6.46-1.21c-1.95-0.81-3.62-1.96-5.02-3.44s-2.48-3.27-3.25-5.37
		c-0.77-2.1-1.15-4.43-1.15-7.01c0-2.56,0.38-4.89,1.15-6.99c0.77-2.1,1.85-3.89,3.25-5.37c1.4-1.48,3.07-2.63,5.02-3.45
		c1.95-0.82,4.1-1.23,6.46-1.23s4.51,0.4,6.47,1.21c1.96,0.81,3.63,1.96,5.03,3.45c1.4,1.49,2.48,3.29,3.25,5.38
		C328.49,15.89,328.87,18.22,328.87,20.78z M326.38,20.78c0-2.32-0.32-4.41-0.97-6.27c-0.64-1.85-1.55-3.42-2.73-4.71
		c-1.18-1.29-2.59-2.27-4.24-2.96c-1.65-0.68-3.47-1.02-5.47-1.02c-1.98,0-3.79,0.34-5.44,1.02c-1.65,0.68-3.07,1.67-4.25,2.96
		c-1.19,1.29-2.1,2.86-2.76,4.71c-0.65,1.85-0.98,3.94-0.98,6.27c0,2.34,0.33,4.43,0.98,6.28c0.65,1.85,1.57,3.41,2.76,4.7
		s2.6,2.27,4.25,2.94c1.65,0.68,3.46,1.01,5.44,1.01c1.99,0,3.82-0.34,5.47-1.01c1.65-0.67,3.06-1.66,4.24-2.94
		c1.18-1.29,2.09-2.85,2.73-4.7S326.38,23.12,326.38,20.78z"/>
	<path class="st0" d="M362.28,4.12v33.34h-1.13c-0.2,0-0.37-0.04-0.51-0.11c-0.13-0.07-0.26-0.19-0.39-0.37L338.6,8.06
		c0.05,0.47,0.07,0.92,0.07,1.34v28.06h-2.12V4.12h1.2c0.22,0,0.39,0.03,0.51,0.08c0.12,0.06,0.25,0.18,0.39,0.37l21.6,28.86
		c-0.05-0.47-0.07-0.92-0.07-1.34V4.12H362.28z"/>
	<path class="st0" d="M393.54,4.12c3.91,0,6.86,0.86,8.85,2.57c1.99,1.71,2.98,4.15,2.98,7.33c0,1.46-0.27,2.8-0.82,4.03
		s-1.33,2.28-2.36,3.17c-1.02,0.89-2.26,1.58-3.72,2.07c-1.46,0.49-3.1,0.74-4.92,0.74h-6.2v13.43h-2.43V4.12H393.54z M393.54,22.1
		c1.46,0,2.77-0.2,3.93-0.61c1.16-0.41,2.15-0.97,2.96-1.7c0.81-0.72,1.43-1.57,1.86-2.56c0.43-0.98,0.65-2.05,0.65-3.22
		c0-2.56-0.79-4.53-2.36-5.91c-1.57-1.38-3.92-2.07-7.04-2.07h-6.2V22.1H393.54z"/>
	<path class="st0" d="M441.77,20.78c0,2.58-0.38,4.91-1.15,7.01c-0.77,2.1-1.85,3.89-3.25,5.37c-1.4,1.48-3.08,2.63-5.03,3.44
		c-1.96,0.81-4.11,1.21-6.47,1.21c-2.36,0-4.51-0.4-6.46-1.21c-1.95-0.81-3.62-1.96-5.02-3.44s-2.48-3.27-3.25-5.37
		c-0.77-2.1-1.15-4.43-1.15-7.01c0-2.56,0.38-4.89,1.15-6.99c0.77-2.1,1.85-3.89,3.25-5.37c1.4-1.48,3.07-2.63,5.02-3.45
		c1.95-0.82,4.1-1.23,6.46-1.23c2.36,0,4.51,0.4,6.47,1.21c1.96,0.81,3.63,1.96,5.03,3.45c1.4,1.49,2.48,3.29,3.25,5.38
		C441.39,15.89,441.77,18.22,441.77,20.78z M439.27,20.78c0-2.32-0.32-4.41-0.97-6.27c-0.64-1.85-1.56-3.42-2.73-4.71
		c-1.18-1.29-2.59-2.27-4.24-2.96c-1.65-0.68-3.47-1.02-5.47-1.02c-1.98,0-3.79,0.34-5.44,1.02c-1.65,0.68-3.07,1.67-4.25,2.96
		c-1.19,1.29-2.11,2.86-2.76,4.71c-0.65,1.85-0.98,3.94-0.98,6.27c0,2.34,0.33,4.43,0.98,6.28c0.65,1.85,1.57,3.41,2.76,4.7
		c1.19,1.29,2.6,2.27,4.25,2.94c1.65,0.68,3.46,1.01,5.44,1.01c2,0,3.82-0.34,5.47-1.01c1.65-0.67,3.06-1.66,4.24-2.94
		s2.09-2.85,2.73-4.7C438.95,25.21,439.27,23.12,439.27,20.78z"/>
	<path class="st0" d="M472.45,37.46h-2.07c-0.27,0-0.49-0.04-0.67-0.13c-0.18-0.09-0.35-0.25-0.51-0.48l-10.7-13.52
		c-0.12-0.17-0.25-0.32-0.39-0.45c-0.13-0.13-0.28-0.22-0.45-0.29c-0.17-0.07-0.36-0.12-0.59-0.15c-0.23-0.03-0.51-0.05-0.84-0.05
		h-4.36v15.08h-2.43V4.12h8.53c3.83,0,6.7,0.74,8.61,2.23c1.91,1.48,2.86,3.66,2.86,6.54c0,1.27-0.22,2.43-0.66,3.49
		c-0.44,1.05-1.07,1.98-1.9,2.77c-0.82,0.79-1.82,1.44-2.99,1.94c-1.17,0.5-2.49,0.84-3.95,1.01c0.38,0.24,0.71,0.55,1.01,0.94
		L472.45,37.46z M457.65,20.59c1.48,0,2.8-0.18,3.97-0.53c1.17-0.35,2.16-0.86,2.97-1.52c0.81-0.66,1.43-1.45,1.85-2.38
		s0.64-1.97,0.64-3.13c0-2.37-0.77-4.13-2.32-5.28c-1.55-1.15-3.8-1.72-6.77-1.72h-6.1v14.56H457.65z"/>
	<path class="st0" d="M498.34,6.17h-11.71v31.29h-2.43V6.17h-11.78V4.12h25.92V6.17z"/>
	<path class="st0" d="M506.37,6.12v14.02h15.2v2h-15.2v15.31h-2.43V4.12h19.98v2H506.37z"/>
	<path class="st0" d="M559.83,20.78c0,2.58-0.38,4.91-1.15,7.01c-0.77,2.1-1.85,3.89-3.25,5.37c-1.4,1.48-3.08,2.63-5.03,3.44
		c-1.96,0.81-4.11,1.21-6.47,1.21c-2.36,0-4.51-0.4-6.46-1.21c-1.95-0.81-3.62-1.96-5.02-3.44s-2.48-3.27-3.25-5.37
		c-0.77-2.1-1.15-4.43-1.15-7.01c0-2.56,0.38-4.89,1.15-6.99c0.77-2.1,1.85-3.89,3.25-5.37c1.4-1.48,3.07-2.63,5.02-3.45
		c1.95-0.82,4.1-1.23,6.46-1.23c2.36,0,4.51,0.4,6.47,1.21c1.96,0.81,3.63,1.96,5.03,3.45c1.4,1.49,2.48,3.29,3.25,5.38
		C559.45,15.89,559.83,18.22,559.83,20.78z M557.33,20.78c0-2.32-0.32-4.41-0.97-6.27c-0.64-1.85-1.56-3.42-2.73-4.71
		c-1.18-1.29-2.59-2.27-4.24-2.96c-1.65-0.68-3.47-1.02-5.47-1.02c-1.98,0-3.79,0.34-5.44,1.02c-1.65,0.68-3.07,1.67-4.25,2.96
		c-1.19,1.29-2.11,2.86-2.76,4.71c-0.65,1.85-0.98,3.94-0.98,6.27c0,2.34,0.33,4.43,0.98,6.28c0.65,1.85,1.57,3.41,2.76,4.7
		c1.19,1.29,2.6,2.27,4.25,2.94c1.65,0.68,3.46,1.01,5.44,1.01c2,0,3.82-0.34,5.47-1.01c1.65-0.67,3.06-1.66,4.24-2.94
		s2.09-2.85,2.73-4.7C557.01,25.21,557.33,23.12,557.33,20.78z"/>
	<path class="st0" d="M585.72,35.41v2.05h-18.21V4.12h2.43v31.29H585.72z"/>
	<path class="st0" d="M593.78,37.46h-2.43V4.12h2.43V37.46z"/>
	<path class="st0" d="M633.24,20.78c0,2.58-0.38,4.91-1.15,7.01c-0.77,2.1-1.85,3.89-3.25,5.37c-1.4,1.48-3.08,2.63-5.03,3.44
		c-1.96,0.81-4.11,1.21-6.47,1.21c-2.36,0-4.51-0.4-6.46-1.21c-1.95-0.81-3.62-1.96-5.02-3.44s-2.48-3.27-3.25-5.37
		c-0.77-2.1-1.15-4.43-1.15-7.01c0-2.56,0.38-4.89,1.15-6.99c0.77-2.1,1.85-3.89,3.25-5.37c1.4-1.48,3.07-2.63,5.02-3.45
		c1.95-0.82,4.1-1.23,6.46-1.23c2.36,0,4.51,0.4,6.47,1.21c1.96,0.81,3.63,1.96,5.03,3.45c1.4,1.49,2.48,3.29,3.25,5.38
		C632.86,15.89,633.24,18.22,633.24,20.78z M630.75,20.78c0-2.32-0.32-4.41-0.97-6.27c-0.64-1.85-1.56-3.42-2.73-4.71
		c-1.18-1.29-2.59-2.27-4.24-2.96c-1.65-0.68-3.47-1.02-5.47-1.02c-1.98,0-3.79,0.34-5.44,1.02c-1.65,0.68-3.07,1.67-4.25,2.96
		c-1.19,1.29-2.11,2.86-2.76,4.71c-0.65,1.85-0.98,3.94-0.98,6.27c0,2.34,0.33,4.43,0.98,6.28c0.65,1.85,1.57,3.41,2.76,4.7
		c1.19,1.29,2.6,2.27,4.25,2.94c1.65,0.68,3.46,1.01,5.44,1.01c2,0,3.82-0.34,5.47-1.01c1.65-0.67,3.06-1.66,4.24-2.94
		s2.09-2.85,2.73-4.7C630.42,25.21,630.75,23.12,630.75,20.78z"/>
</g>
</svg>
